<svg xmlns="http://www.w3.org/2000/svg" version="1.0" viewBox="0 0 19.688 31.5"><g transform="translate(-3)"><path d="M5 5.906a5.906 5.906 0 1111.813 0v9.844A5.906 5.906 0 015 15.75z" transform="translate(1.938)"/><path d="M3.984 6.5a.984.984 0 01.984.984v1.969a7.875 7.875 0 1015.75 0V7.484a.984.984 0 011.969 0v1.969a9.844 9.844 0 01-8.859 9.795v3.987h5.906a.984.984 0 010 1.969H5.953a.984.984 0 010-1.969h5.906v-3.987A9.844 9.844 0 013 9.453V7.484a.984.984 0 01.984-.984z" transform="translate(0 6.297)" fill-rule="evenodd"/></g></svg>