<svg xmlns="http://www.w3.org/2000/svg" width="205.759" height="92.904" viewBox="0 0 205.759 92.904">
  <g id="Group_49" data-name="Group 49" transform="translate(-263.638 -997)">
    <g id="Group_47" data-name="Group 47" transform="translate(263.638 1033.828)">
      <path id="Path_29" data-name="Path 29" d="M277.787,1126.787l.875-20.044a8.316,8.316,0,0,0-2.967-.532,11.074,11.074,0,0,0-4.279.894,14.565,14.565,0,0,0-3.853,2.339,12.753,12.753,0,0,0-2.777,3.271,7.154,7.154,0,0,0-1.072,3.651,3,3,0,0,0,1.11,2.643,4.98,4.98,0,0,0,2.922.78,2.613,2.613,0,0,0-.133-.3,2.484,2.484,0,0,1-.171-.476q-.077-.285-.152-.722a6.743,6.743,0,0,1-.076-1.122,8.924,8.924,0,0,1,1.6-5.439,8.806,8.806,0,0,1,4.45-3.118l-9.622,26.129h3.011l6.346-17.153-.761,17.153h5.211l7.15-17.077-2.434,17.077h5.477l3.993-27.993h-5.477Z" transform="translate(-263.638 -1106.211)" fill="#fff"/>
      <path id="Path_30" data-name="Path 30" d="M420.483,1116.43a2.962,2.962,0,0,0,2.149-.875,2.869,2.869,0,0,0,.894-2.13,3.051,3.051,0,0,0-3.042-3.043,2.871,2.871,0,0,0-2.13.893,2.963,2.963,0,0,0-.874,2.149,2.986,2.986,0,0,0,3,3Z" transform="translate(-365.601 -1108.976)" fill="#fff"/>
      <path id="Path_31" data-name="Path 31" d="M439.524,1140.59q-.114-1.426-.266-3.708t-.3-5.971l-5.629.761q-.876,2.815-1.978,5.61a46.631,46.631,0,0,1-2.7,5.648,3.558,3.558,0,0,0-1.407,1.293,3.959,3.959,0,0,0-.608,2.244c0,.055.006.109.008.164-.022.027-.043.057-.064.083a2.691,2.691,0,0,1-.837.685,2.312,2.312,0,0,1-1.084.247,1.4,1.4,0,0,1-1.2-.437,1.905,1.905,0,0,1-.323-1.16,8.925,8.925,0,0,1,.285-2q.285-1.2.628-2.548t.628-2.738a12.654,12.654,0,0,0,.285-2.529,4.074,4.074,0,0,0-1.2-3.29,4.536,4.536,0,0,0-3.023-1.008,6.836,6.836,0,0,0-2.054.38,5.7,5.7,0,0,0-2.4,1.749l.418-1.978h-5.477l-1.081,5.1-.041.019a10.641,10.641,0,0,1-1.559.514,6.041,6.041,0,0,1-1.426.19,1.8,1.8,0,0,1-.419-.038q-.077-5.971-4.868-5.971a8.449,8.449,0,0,0-3.5.684,9.132,9.132,0,0,0-2.681,1.826,11.387,11.387,0,0,0-1.959,2.567,18.138,18.138,0,0,0-2.054,5.838,17.522,17.522,0,0,0-.211,1.9,19.887,19.887,0,0,1-2.222,1.482,6.044,6.044,0,0,0,.152-1.445q0-.95-.076-1.845t-.19-2.32q-.114-1.426-.266-3.708t-.3-5.971l-5.629.761q-.876,2.815-1.978,5.61a46.63,46.63,0,0,1-2.7,5.648,3.559,3.559,0,0,0-1.408,1.293,3.959,3.959,0,0,0-.608,2.244c0,.017,0,.034,0,.051-.053.058-.1.121-.155.177a2.871,2.871,0,0,1-2.054.951,1.872,1.872,0,0,1-1.179-.3,1.345,1.345,0,0,1-.38-1.1,5.305,5.305,0,0,1,.152-1.217l2.738-12.932h-5.477l-2.586,12.209v0a6.648,6.648,0,0,1-1.2,2.394,2.358,2.358,0,0,1-1.882.951,1.872,1.872,0,0,1-1.179-.3,1.344,1.344,0,0,1-.381-1.1,5.324,5.324,0,0,1,.152-1.217l2.777-12.932h-5.515l-.38,1.788a2.261,2.261,0,0,0-.437-1.046,2.19,2.19,0,0,0-.761-.608,2.957,2.957,0,0,0-.951-.266,8.762,8.762,0,0,0-.97-.057,7.085,7.085,0,0,0-3.024.627,9.158,9.158,0,0,0-2.453,1.674,10.813,10.813,0,0,0-1.9,2.415,17.125,17.125,0,0,0-1.331,2.853,18.3,18.3,0,0,0-.8,2.966,15.755,15.755,0,0,0-.266,2.776,8.525,8.525,0,0,0,.418,2.872,5.016,5.016,0,0,0,1.141,1.883,4.363,4.363,0,0,0,1.617,1.046,5.5,5.5,0,0,0,1.883.323,5.426,5.426,0,0,0,1.864-.3,6.555,6.555,0,0,0,1.54-.8,7.233,7.233,0,0,0,1.274-1.141,10.957,10.957,0,0,0,.989-1.293,3.824,3.824,0,0,0,1.2,2.472,3.731,3.731,0,0,0,2.529.837,9.378,9.378,0,0,0,1.749-.19,5.553,5.553,0,0,0,2.034-.894,8.717,8.717,0,0,0,2.049-2.046,3.776,3.776,0,0,0,1.089,2.274,4.114,4.114,0,0,0,2.891,1.084,8.661,8.661,0,0,0,1.806-.229,6.29,6.29,0,0,0,2.149-.97,8.689,8.689,0,0,0,1.7-1.554,4.343,4.343,0,0,0,.849,1.193,5.3,5.3,0,0,0,1.731,1.122,6.445,6.445,0,0,0,2.491.438,10.84,10.84,0,0,0,1.522-.114,8.2,8.2,0,0,0,1.6-.4,9.167,9.167,0,0,0,1.522-.7,5.841,5.841,0,0,0,1.331-1.065,26.425,26.425,0,0,0,2.834-1.9c.306-.233.611-.489.917-.758a6.5,6.5,0,0,0,.395,1.708,4.936,4.936,0,0,0,1.255,1.863,4.78,4.78,0,0,0,1.921,1.046,8.847,8.847,0,0,0,2.454.323,7.162,7.162,0,0,0,3.309-.8,8.646,8.646,0,0,0,2.777-2.3,12.935,12.935,0,0,0,2.016-3.632,17.988,17.988,0,0,0,1.027-4.792,15.159,15.159,0,0,0,3.152-.878l-2.581,12.174h5.477l2.586-12.209a7.708,7.708,0,0,1,1.179-2.472,2.195,2.195,0,0,1,1.788-1.027q1.369,0,1.369,1.94a10.978,10.978,0,0,1-.266,2.187q-.266,1.275-.589,2.605t-.589,2.643a11.618,11.618,0,0,0-.266,2.263,5.591,5.591,0,0,0,.228,1.578,3.623,3.623,0,0,0,.761,1.388,3.735,3.735,0,0,0,1.388.97,5.434,5.434,0,0,0,2.111.362,6.728,6.728,0,0,0,1.655-.229,5.238,5.238,0,0,0,1.844-.951,7.327,7.327,0,0,0,1.344-1.38,4.368,4.368,0,0,0,.748,1,5.3,5.3,0,0,0,1.73,1.122,6.448,6.448,0,0,0,2.491.438,10.687,10.687,0,0,0,2.51-.323,7.46,7.46,0,0,0,2.472-1.1,6.311,6.311,0,0,0,1.883-2.035,6.043,6.043,0,0,0,.742-3.119q0-.95-.076-1.845T439.524,1140.59Zm-82.037,3.708a5.678,5.678,0,0,1-.532,1.464,4,4,0,0,1-.8,1.046,3.429,3.429,0,0,1-.932.628,2.226,2.226,0,0,1-.894.209,3.441,3.441,0,0,1-.589-.057,1.145,1.145,0,0,1-.609-.342,2.325,2.325,0,0,1-.494-.875,5.293,5.293,0,0,1-.209-1.693,15.525,15.525,0,0,1,.38-3.138,18.541,18.541,0,0,1,1.065-3.423,10,10,0,0,1,1.673-2.738,2.9,2.9,0,0,1,2.206-1.122,1.429,1.429,0,0,1,.742.171,1.571,1.571,0,0,1,.457.4,1.991,1.991,0,0,1,.266.476,1.193,1.193,0,0,1,.1.4Zm26.072,2.168a3.074,3.074,0,0,1-.742,1.1,2.592,2.592,0,0,1-1.065.59,4.493,4.493,0,0,1-1.217.171,2.161,2.161,0,0,1-1.788-.665,2.719,2.719,0,0,1-.507-1.471c.047-.1.095-.194.141-.295a.689.689,0,0,0,.271.168,1.842,1.842,0,0,0,.589.1,1.461,1.461,0,0,0,1.217-.59,2.039,2.039,0,0,0,.457-1.274,1.31,1.31,0,0,0-.247-.818,1.8,1.8,0,0,0-.628-.514q.95-1.825,1.73-3.575a31.621,31.621,0,0,0,1.351-3.613q.151,2.206.285,3.613t.228,2.358q.095.951.152,1.635t.057,1.407A4.359,4.359,0,0,1,383.558,1146.466Zm19.168-9.451a2.42,2.42,0,0,0-.323,1.312,2.3,2.3,0,0,0,.209,1.008,1.143,1.143,0,0,0,.818.59,18.759,18.759,0,0,1-.685,3.118,13.14,13.14,0,0,1-1.046,2.491,5.849,5.849,0,0,1-1.293,1.635,2.178,2.178,0,0,1-1.388.59,2.753,2.753,0,0,1-.913-.134,1.181,1.181,0,0,1-.608-.475,2.342,2.342,0,0,1-.323-.932,10,10,0,0,1-.1-1.541,14.4,14.4,0,0,1,.419-3.214,20.778,20.778,0,0,1,1.1-3.423,11.289,11.289,0,0,1,1.6-2.739,2.547,2.547,0,0,1,1.94-1.122,1.175,1.175,0,0,1,1.046.475,3.524,3.524,0,0,1,.4,1.655A1.648,1.648,0,0,0,402.727,1137.015Zm31.263,9.451a3.07,3.07,0,0,1-.742,1.1,2.591,2.591,0,0,1-1.065.59,4.493,4.493,0,0,1-1.217.171,2.16,2.16,0,0,1-1.788-.665,2.646,2.646,0,0,1-.5-1.387c.052-.117.1-.233.156-.355a.691.691,0,0,0,.25.145,1.839,1.839,0,0,0,.589.1,1.461,1.461,0,0,0,1.217-.59,2.039,2.039,0,0,0,.457-1.274,1.308,1.308,0,0,0-.247-.818,1.8,1.8,0,0,0-.627-.514q.95-1.825,1.73-3.575a31.639,31.639,0,0,0,1.351-3.613q.151,2.206.285,3.613t.228,2.358q.095.951.152,1.635t.057,1.407A4.359,4.359,0,0,1,433.99,1146.466Z" transform="translate(-318.731 -1122.581)" fill="#fff"/>
      <path id="Path_32" data-name="Path 32" d="M658.655,1106.4l-7.987,23.277-.342-23.391c-.254-.026-.507-.044-.76-.057s-.52-.019-.8-.019a14.494,14.494,0,0,0-4.735.817,15.986,15.986,0,0,0-4.273,2.206,12.256,12.256,0,0,0-3.081,3.214,6.939,6.939,0,0,0-1.185,3.842,3.142,3.142,0,0,0,1.072,2.719,4.946,4.946,0,0,0,2.959.78,2.592,2.592,0,0,0-.133-.3,2.482,2.482,0,0,1-.171-.476q-.077-.285-.152-.722a6.656,6.656,0,0,1-.076-1.122,8.962,8.962,0,0,1,1.5-5.268,8.566,8.566,0,0,1,4.165-3.138l.609,25.977h5.477l10.573-28.335Z" transform="translate(-510.097 -1106.211)" fill="#fff"/>
      <path id="Path_33" data-name="Path 33" d="M718.575,1116.43a2.962,2.962,0,0,0,2.149-.875,2.869,2.869,0,0,0,.894-2.13,3.051,3.051,0,0,0-3.043-3.043,2.871,2.871,0,0,0-2.13.893,2.963,2.963,0,0,0-.875,2.149,2.986,2.986,0,0,0,3,3Z" transform="translate(-563.171 -1108.976)" fill="#fff"/>
      <path id="Path_34" data-name="Path 34" d="M761.677,1130.277q-.077-.893-.19-2.32t-.266-3.708q-.153-2.282-.3-5.971l-5.629.761q-.876,2.815-1.978,5.61a46.618,46.618,0,0,1-2.7,5.648,3.683,3.683,0,0,0-1.916,2.58c-.1.1-.193.2-.289.291a9.713,9.713,0,0,1-1.522,1.217,7.586,7.586,0,0,1-1.711.818,6.464,6.464,0,0,1-2.054.3,2.949,2.949,0,0,1-2.054-.627,3.52,3.52,0,0,1-.685-2.568c0-.228.006-.469.019-.723s.031-.52.056-.8a10.712,10.712,0,0,0,3.276-.742,9.74,9.74,0,0,0,2.783-1.674,8.068,8.068,0,0,0,1.932-2.453,6.506,6.506,0,0,0,.72-3,5.326,5.326,0,0,0-.171-1.369,2.712,2.712,0,0,0-.646-1.16,3.293,3.293,0,0,0-1.293-.818,6.023,6.023,0,0,0-2.073-.3,8.349,8.349,0,0,0-3.461.684,8.888,8.888,0,0,0-2.662,1.826,11.686,11.686,0,0,0-1.94,2.567,15.82,15.82,0,0,0-1.274,2.91,19.845,19.845,0,0,0-.7,2.891,15.869,15.869,0,0,0-.228,2.51c0,.1.007.186.009.28a5.762,5.762,0,0,1-.712,1.127,2.359,2.359,0,0,1-1.883.951,1.873,1.873,0,0,1-1.179-.3,1.345,1.345,0,0,1-.38-1.1,5.323,5.323,0,0,1,.152-1.217l4.374-20.538-5.629.76-1.864,8.672a2.059,2.059,0,0,0-.4-1.084,2.138,2.138,0,0,0-.78-.608,3.153,3.153,0,0,0-.97-.266,8.75,8.75,0,0,0-.97-.057,7.087,7.087,0,0,0-3.023.627,9.157,9.157,0,0,0-2.453,1.674,10.817,10.817,0,0,0-1.9,2.415,17.128,17.128,0,0,0-1.331,2.853,18.292,18.292,0,0,0-.8,2.966,15.783,15.783,0,0,0-.266,2.776c0,.1.007.182.009.275a5.1,5.1,0,0,1-.883,1.209,2.872,2.872,0,0,1-2.054.951,1.872,1.872,0,0,1-1.179-.3,1.345,1.345,0,0,1-.38-1.1,5.3,5.3,0,0,1,.152-1.217l2.738-12.931h-5.477l-2.586,12.209a12.267,12.267,0,0,0-.3,2.472,4.526,4.526,0,0,0,1.179,3.48,4.113,4.113,0,0,0,2.891,1.084,8.663,8.663,0,0,0,1.806-.228,6.293,6.293,0,0,0,2.149-.97,9.492,9.492,0,0,0,2.168-2.13c.04-.052.079-.109.118-.163.024.079.044.164.071.239a5.016,5.016,0,0,0,1.141,1.883,4.365,4.365,0,0,0,1.617,1.046,5.5,5.5,0,0,0,1.883.323,5.423,5.423,0,0,0,1.863-.3,6.549,6.549,0,0,0,1.54-.8,7.232,7.232,0,0,0,1.274-1.141,10.966,10.966,0,0,0,.989-1.293,3.822,3.822,0,0,0,1.2,2.472,3.732,3.732,0,0,0,2.529.837,9.381,9.381,0,0,0,1.75-.19,5.551,5.551,0,0,0,2.034-.894,8.723,8.723,0,0,0,2.054-2.054c.022-.03.044-.063.066-.093a4.369,4.369,0,0,0,1.276,2.052,6.411,6.411,0,0,0,4.344,1.407,9.452,9.452,0,0,0,3.461-.609,11.618,11.618,0,0,0,2.852-1.6,13.912,13.912,0,0,0,1.728-1.57,5.473,5.473,0,0,0,.192.657,4.293,4.293,0,0,0,1.008,1.56,5.3,5.3,0,0,0,1.731,1.122,6.445,6.445,0,0,0,2.491.438,10.682,10.682,0,0,0,2.51-.323,7.458,7.458,0,0,0,2.472-1.1,6.3,6.3,0,0,0,1.883-2.035,6.04,6.04,0,0,0,.742-3.119Q761.754,1131.172,761.677,1130.277ZM741.5,1126.2a15.053,15.053,0,0,1,1.084-2.441,8.014,8.014,0,0,1,1.293-1.76,2.008,2.008,0,0,1,1.407-.682.759.759,0,0,1,.742.417,2.566,2.566,0,0,1,.209,1.135,5.854,5.854,0,0,1-.437,2.214,6.35,6.35,0,0,1-1.2,1.911,6.436,6.436,0,0,1-1.768,1.362,5.271,5.271,0,0,1-2.111.6A23.479,23.479,0,0,1,741.5,1126.2Zm-16.069,5.463a5.69,5.69,0,0,1-.533,1.464,4.005,4.005,0,0,1-.8,1.046,3.424,3.424,0,0,1-.932.628,2.223,2.223,0,0,1-.894.209,3.432,3.432,0,0,1-.589-.057,1.144,1.144,0,0,1-.608-.342,2.326,2.326,0,0,1-.494-.875,5.294,5.294,0,0,1-.209-1.693,15.5,15.5,0,0,1,.38-3.137,18.509,18.509,0,0,1,1.065-3.423,10,10,0,0,1,1.674-2.738,2.9,2.9,0,0,1,2.206-1.122,1.3,1.3,0,0,1,1.236.57,2.034,2.034,0,0,1,.323.913Zm30.521,2.168a3.071,3.071,0,0,1-.742,1.1,2.594,2.594,0,0,1-1.065.589,4.489,4.489,0,0,1-1.217.171,2.16,2.16,0,0,1-1.788-.665,3.151,3.151,0,0,1-.532-2,.743.743,0,0,0,.437.4,1.839,1.839,0,0,0,.589.1,1.461,1.461,0,0,0,1.217-.59,2.041,2.041,0,0,0,.457-1.274,1.311,1.311,0,0,0-.247-.818,1.8,1.8,0,0,0-.627-.514q.95-1.825,1.73-3.575a31.635,31.635,0,0,0,1.35-3.613q.151,2.206.285,3.613t.228,2.358q.095.951.152,1.635t.057,1.407A4.354,4.354,0,0,1,755.953,1133.833Z" transform="translate(-555.995 -1109.948)" fill="#fff"/>
    </g>
    <g id="Group_48" data-name="Group 48" transform="translate(314.362 997)">
      <path id="Path_35" data-name="Path 35" d="M470,997h-.112a4.784,4.784,0,0,0-1.9.432l-1.611.9c-.43.247-10.795,6.4-21.137,12.674-5.971,3.624-10.748,6.57-14.2,8.755-7.189,4.554-7.514,4.991-7.865,6.306a3.076,3.076,0,0,0,3,3.872c1.053,0,1.963,0,23.583-11.64,8.3-4.469,16.892-9.179,20.206-11.007l10.46,5.982a4.81,4.81,0,0,0,7.307-3.257h2.9v6.325a4.829,4.829,0,0,0,2.6,4.253l16.71,9.558a4.811,4.811,0,0,0,6.542-1.739,4.738,4.738,0,0,0,.491-3.637h0a4.753,4.753,0,0,0-2.246-2.919l-14.484-8.284v-8.345a4.8,4.8,0,0,0-4.8-4.789H483a4.809,4.809,0,0,0-3.35,1.355l-7.248-4.146-.419-.215a4.805,4.805,0,0,0-1.9-.431h-.04" transform="translate(-420.036 -997)" fill="#6c90d8"/>
      <path id="Path_36" data-name="Path 36" d="M422.1,1230.241l84.465,2.03.141,0a5.809,5.809,0,0,0,5.8-5.8v-8.765a5.9,5.9,0,0,0-11.8,0v2.9l-79.556,1.913-.619-5.024a2.708,2.708,0,0,0-5.376,0l-.638,5.183-.073.591-.356,2.894c-.014.111-.022.229-.025.343a3.535,3.535,0,0,0,3.45,3.619l3.881.093Z" transform="translate(-414.059 -1139.369)" fill="#6c90d8"/>
    </g>
  </g>
</svg>
