<svg xmlns="http://www.w3.org/2000/svg" width="216.988" height="97.974" viewBox="0 0 216.988 97.974">
  <g id="Group_50" data-name="Group 50" transform="translate(-263.638 -997)">
    <g id="Group_47" data-name="Group 47" transform="translate(263.638 1035.837)">
      <path id="Path_29" data-name="Path 29" d="M278.559,1127.91l.922-21.138a8.772,8.772,0,0,0-3.128-.561,11.679,11.679,0,0,0-4.512.942,15.361,15.361,0,0,0-4.064,2.467,13.45,13.45,0,0,0-2.928,3.449,7.544,7.544,0,0,0-1.13,3.85,3.165,3.165,0,0,0,1.17,2.788,5.251,5.251,0,0,0,3.081.823,2.749,2.749,0,0,0-.14-.321,2.619,2.619,0,0,1-.18-.5q-.081-.3-.161-.762a7.106,7.106,0,0,1-.08-1.183,9.41,9.41,0,0,1,1.685-5.736,9.287,9.287,0,0,1,4.693-3.289l-10.148,27.555h3.175l6.692-18.089-.8,18.089h5.5l7.541-18.009-2.567,18.009h5.776l4.211-29.521h-5.776Z" transform="translate(-263.638 -1106.211)" fill="#535353"/>
      <path id="Path_30" data-name="Path 30" d="M420.647,1116.76a3.123,3.123,0,0,0,2.266-.922,3.026,3.026,0,0,0,.942-2.246,3.218,3.218,0,0,0-3.208-3.209,3.027,3.027,0,0,0-2.246.942,3.124,3.124,0,0,0-.922,2.266,3.149,3.149,0,0,0,3.169,3.169Z" transform="translate(-362.77 -1108.899)" fill="#535353"/>
      <path id="Path_31" data-name="Path 31" d="M444.586,1141.118q-.121-1.5-.281-3.911t-.321-6.3l-5.936.8q-.924,2.969-2.086,5.917a49.167,49.167,0,0,1-2.848,5.956,3.753,3.753,0,0,0-1.484,1.364,4.176,4.176,0,0,0-.642,2.366c0,.058.006.115.008.173-.023.029-.045.06-.068.087a2.84,2.84,0,0,1-.882.722,2.438,2.438,0,0,1-1.143.261,1.481,1.481,0,0,1-1.264-.461,2.01,2.01,0,0,1-.341-1.223,9.413,9.413,0,0,1,.3-2.106q.3-1.263.662-2.687t.662-2.888a13.341,13.341,0,0,0,.3-2.667,4.3,4.3,0,0,0-1.263-3.469,4.785,4.785,0,0,0-3.188-1.063,7.21,7.21,0,0,0-2.166.4,6.015,6.015,0,0,0-2.527,1.845l.441-2.085h-5.776l-1.14,5.375-.044.02a11.219,11.219,0,0,1-1.644.542,6.37,6.37,0,0,1-1.5.2,1.888,1.888,0,0,1-.441-.04q-.081-6.3-5.134-6.3a8.91,8.91,0,0,0-3.69.722,9.63,9.63,0,0,0-2.828,1.925,12.009,12.009,0,0,0-2.066,2.707,19.128,19.128,0,0,0-2.166,6.157,18.479,18.479,0,0,0-.223,2.007,20.974,20.974,0,0,1-2.343,1.563,6.374,6.374,0,0,0,.16-1.524q0-1-.08-1.945t-.2-2.447q-.121-1.5-.281-3.911t-.321-6.3l-5.936.8q-.923,2.969-2.086,5.917a49.176,49.176,0,0,1-2.848,5.956,3.753,3.753,0,0,0-1.484,1.364,4.175,4.175,0,0,0-.641,2.366c0,.018,0,.036,0,.054-.056.061-.1.128-.163.187a3.028,3.028,0,0,1-2.166,1,1.974,1.974,0,0,1-1.243-.321,1.418,1.418,0,0,1-.4-1.163,5.593,5.593,0,0,1,.16-1.284l2.888-13.637h-5.776l-2.728,12.875v0a7.01,7.01,0,0,1-1.262,2.525,2.487,2.487,0,0,1-1.985,1,1.974,1.974,0,0,1-1.243-.321,1.417,1.417,0,0,1-.4-1.163,5.615,5.615,0,0,1,.16-1.284l2.928-13.637h-5.816l-.4,1.885a2.385,2.385,0,0,0-.461-1.1,2.31,2.31,0,0,0-.8-.641,3.121,3.121,0,0,0-1-.281,9.242,9.242,0,0,0-1.023-.06,7.474,7.474,0,0,0-3.189.661,9.658,9.658,0,0,0-2.587,1.765,11.4,11.4,0,0,0-2.005,2.547,18.063,18.063,0,0,0-1.4,3.009,19.288,19.288,0,0,0-.842,3.128,16.614,16.614,0,0,0-.281,2.928,8.992,8.992,0,0,0,.441,3.028,5.291,5.291,0,0,0,1.2,1.985,4.6,4.6,0,0,0,1.7,1.1,5.8,5.8,0,0,0,1.985.341,5.721,5.721,0,0,0,1.966-.321,6.912,6.912,0,0,0,1.624-.842,7.627,7.627,0,0,0,1.344-1.2,11.56,11.56,0,0,0,1.043-1.364,4.032,4.032,0,0,0,1.264,2.607,3.935,3.935,0,0,0,2.667.883,9.889,9.889,0,0,0,1.845-.2,5.854,5.854,0,0,0,2.145-.943,9.192,9.192,0,0,0,2.16-2.158,3.982,3.982,0,0,0,1.148,2.4,4.338,4.338,0,0,0,3.048,1.143,9.132,9.132,0,0,0,1.905-.241,6.633,6.633,0,0,0,2.266-1.023,9.164,9.164,0,0,0,1.792-1.639,4.58,4.58,0,0,0,.9,1.258,5.586,5.586,0,0,0,1.825,1.183,6.8,6.8,0,0,0,2.627.461,11.41,11.41,0,0,0,1.6-.121,8.639,8.639,0,0,0,1.684-.421,9.658,9.658,0,0,0,1.6-.742,6.158,6.158,0,0,0,1.4-1.123,27.855,27.855,0,0,0,2.989-2.005c.323-.245.645-.516.967-.8a6.85,6.85,0,0,0,.416,1.8,5.207,5.207,0,0,0,1.324,1.965,5.042,5.042,0,0,0,2.025,1.1,9.331,9.331,0,0,0,2.587.341,7.552,7.552,0,0,0,3.489-.843,9.117,9.117,0,0,0,2.928-2.427,13.642,13.642,0,0,0,2.125-3.83,18.969,18.969,0,0,0,1.083-5.054,15.992,15.992,0,0,0,3.324-.926l-2.722,12.838h5.776L419,1139.333a8.129,8.129,0,0,1,1.244-2.607,2.315,2.315,0,0,1,1.885-1.083q1.444,0,1.444,2.046a11.578,11.578,0,0,1-.281,2.306q-.281,1.345-.622,2.747t-.622,2.787a12.252,12.252,0,0,0-.281,2.387,5.9,5.9,0,0,0,.241,1.665,3.821,3.821,0,0,0,.8,1.464,3.938,3.938,0,0,0,1.464,1.023,5.732,5.732,0,0,0,2.226.381,7.1,7.1,0,0,0,1.745-.241,5.524,5.524,0,0,0,1.945-1,7.726,7.726,0,0,0,1.418-1.456,4.607,4.607,0,0,0,.788,1.055,5.587,5.587,0,0,0,1.825,1.183,6.8,6.8,0,0,0,2.627.461,11.271,11.271,0,0,0,2.647-.341,7.867,7.867,0,0,0,2.607-1.163,6.655,6.655,0,0,0,1.985-2.146,6.372,6.372,0,0,0,.782-3.289q0-1-.08-1.945T444.586,1141.118Zm-86.514,3.911a5.99,5.99,0,0,1-.561,1.544,4.221,4.221,0,0,1-.842,1.1,3.618,3.618,0,0,1-.983.662,2.346,2.346,0,0,1-.942.22,3.627,3.627,0,0,1-.622-.06,1.207,1.207,0,0,1-.642-.361,2.451,2.451,0,0,1-.521-.922,5.583,5.583,0,0,1-.221-1.785,16.372,16.372,0,0,1,.4-3.309,19.555,19.555,0,0,1,1.123-3.61,10.544,10.544,0,0,1,1.765-2.888,3.063,3.063,0,0,1,2.326-1.183,1.507,1.507,0,0,1,.782.181,1.657,1.657,0,0,1,.482.421,2.1,2.1,0,0,1,.281.5,1.257,1.257,0,0,1,.1.421Zm27.495,2.286a3.242,3.242,0,0,1-.782,1.163,2.733,2.733,0,0,1-1.123.622,4.733,4.733,0,0,1-1.283.18,2.279,2.279,0,0,1-1.885-.7,2.868,2.868,0,0,1-.535-1.551c.05-.1.1-.2.149-.311a.726.726,0,0,0,.286.177,1.941,1.941,0,0,0,.622.1,1.541,1.541,0,0,0,1.283-.622,2.15,2.15,0,0,0,.482-1.344,1.381,1.381,0,0,0-.261-.862,1.9,1.9,0,0,0-.662-.542q1-1.925,1.825-3.77a33.354,33.354,0,0,0,1.424-3.811q.159,2.326.3,3.811t.24,2.487q.1,1,.161,1.725t.06,1.484A4.6,4.6,0,0,1,385.566,1147.315Zm20.214-9.967a2.552,2.552,0,0,0-.341,1.383,2.428,2.428,0,0,0,.221,1.063,1.2,1.2,0,0,0,.862.622,19.786,19.786,0,0,1-.722,3.289,13.854,13.854,0,0,1-1.1,2.627,6.168,6.168,0,0,1-1.364,1.725,2.3,2.3,0,0,1-1.464.622,2.9,2.9,0,0,1-.963-.141,1.246,1.246,0,0,1-.642-.5,2.468,2.468,0,0,1-.341-.983,10.549,10.549,0,0,1-.1-1.625,15.185,15.185,0,0,1,.441-3.389,21.919,21.919,0,0,1,1.163-3.609,11.9,11.9,0,0,1,1.685-2.888,2.686,2.686,0,0,1,2.046-1.183,1.239,1.239,0,0,1,1.1.5,3.717,3.717,0,0,1,.421,1.745A1.738,1.738,0,0,0,405.781,1137.348Zm32.969,9.967a3.238,3.238,0,0,1-.782,1.163,2.732,2.732,0,0,1-1.123.622,4.733,4.733,0,0,1-1.283.18,2.278,2.278,0,0,1-1.885-.7,2.79,2.79,0,0,1-.528-1.463c.055-.123.11-.246.164-.375a.727.727,0,0,0,.263.153,1.938,1.938,0,0,0,.622.1,1.541,1.541,0,0,0,1.283-.622,2.15,2.15,0,0,0,.482-1.344,1.379,1.379,0,0,0-.261-.862,1.892,1.892,0,0,0-.661-.542q1-1.925,1.825-3.77a33.36,33.36,0,0,0,1.424-3.811q.159,2.326.3,3.811t.241,2.487q.1,1,.16,1.725t.06,1.484A4.6,4.6,0,0,1,438.75,1147.315Z" transform="translate(-317.201 -1122.127)" fill="#535353"/>
      <path id="Path_32" data-name="Path 32" d="M659.919,1106.411l-8.423,24.547-.361-24.667c-.267-.027-.535-.046-.8-.06s-.548-.02-.843-.02a15.284,15.284,0,0,0-4.994.862,16.858,16.858,0,0,0-4.506,2.326,12.928,12.928,0,0,0-3.249,3.389,7.318,7.318,0,0,0-1.25,4.052,3.313,3.313,0,0,0,1.131,2.867,5.215,5.215,0,0,0,3.121.823,2.742,2.742,0,0,0-.14-.321,2.619,2.619,0,0,1-.18-.5q-.081-.3-.16-.762a7.012,7.012,0,0,1-.08-1.183,9.452,9.452,0,0,1,1.584-5.555,9.033,9.033,0,0,1,4.392-3.309l.642,27.394h5.776l11.15-29.881Z" transform="translate(-503.254 -1106.211)" fill="#535353"/>
      <path id="Path_33" data-name="Path 33" d="M718.739,1116.76a3.124,3.124,0,0,0,2.266-.922,3.026,3.026,0,0,0,.942-2.246,3.218,3.218,0,0,0-3.209-3.209,3.027,3.027,0,0,0-2.246.942,3.125,3.125,0,0,0-.922,2.266,3.149,3.149,0,0,0,3.169,3.169Z" transform="translate(-554.855 -1108.899)" fill="#535353"/>
      <path id="Path_34" data-name="Path 34" d="M764.785,1131.283q-.081-.942-.2-2.447t-.281-3.911q-.161-2.406-.321-6.3l-5.936.8q-.924,2.969-2.086,5.916a49.153,49.153,0,0,1-2.848,5.956,3.885,3.885,0,0,0-2.021,2.721c-.1.1-.2.208-.3.307a10.248,10.248,0,0,1-1.6,1.283,8,8,0,0,1-1.8.862,6.817,6.817,0,0,1-2.166.321,3.11,3.11,0,0,1-2.166-.661,3.712,3.712,0,0,1-.722-2.708c0-.24.006-.494.02-.762s.033-.548.059-.842a11.293,11.293,0,0,0,3.454-.782,10.272,10.272,0,0,0,2.935-1.765,8.506,8.506,0,0,0,2.037-2.587,6.86,6.86,0,0,0,.759-3.169,5.617,5.617,0,0,0-.181-1.444,2.859,2.859,0,0,0-.682-1.223,3.477,3.477,0,0,0-1.364-.862,6.35,6.35,0,0,0-2.186-.321,8.8,8.8,0,0,0-3.65.722,9.371,9.371,0,0,0-2.808,1.925,12.321,12.321,0,0,0-2.046,2.707,16.67,16.67,0,0,0-1.344,3.068,20.934,20.934,0,0,0-.742,3.049,16.737,16.737,0,0,0-.241,2.647c0,.1.007.2.01.3a6.078,6.078,0,0,1-.751,1.189,2.487,2.487,0,0,1-1.985,1,1.975,1.975,0,0,1-1.243-.321,1.419,1.419,0,0,1-.4-1.163,5.611,5.611,0,0,1,.16-1.283l4.613-21.659-5.936.8-1.966,9.145a2.172,2.172,0,0,0-.421-1.143,2.256,2.256,0,0,0-.823-.641,3.329,3.329,0,0,0-1.023-.281,9.258,9.258,0,0,0-1.023-.06,7.47,7.47,0,0,0-3.188.661,9.653,9.653,0,0,0-2.587,1.765,11.416,11.416,0,0,0-2.006,2.547,18.068,18.068,0,0,0-1.4,3.009,19.3,19.3,0,0,0-.842,3.128,16.642,16.642,0,0,0-.281,2.928c0,.1.007.192.009.29a5.383,5.383,0,0,1-.931,1.275,3.029,3.029,0,0,1-2.166,1,1.974,1.974,0,0,1-1.243-.321,1.419,1.419,0,0,1-.4-1.163,5.6,5.6,0,0,1,.161-1.283l2.888-13.637H707.79l-2.727,12.875a12.935,12.935,0,0,0-.321,2.607,4.773,4.773,0,0,0,1.244,3.67,4.338,4.338,0,0,0,3.048,1.143,9.136,9.136,0,0,0,1.905-.241,6.637,6.637,0,0,0,2.266-1.023,10.011,10.011,0,0,0,2.286-2.246c.042-.055.083-.115.125-.172.026.083.047.173.075.252a5.29,5.29,0,0,0,1.2,1.985,4.6,4.6,0,0,0,1.7,1.1,5.8,5.8,0,0,0,1.985.341,5.721,5.721,0,0,0,1.965-.321,6.916,6.916,0,0,0,1.625-.842,7.627,7.627,0,0,0,1.343-1.2,11.552,11.552,0,0,0,1.043-1.364,4.031,4.031,0,0,0,1.263,2.607,3.936,3.936,0,0,0,2.668.883,9.89,9.89,0,0,0,1.845-.2,5.856,5.856,0,0,0,2.145-.943,9.2,9.2,0,0,0,2.166-2.166c.023-.031.046-.066.069-.1a4.608,4.608,0,0,0,1.345,2.164,6.761,6.761,0,0,0,4.581,1.484,9.973,9.973,0,0,0,3.65-.642,12.251,12.251,0,0,0,3.008-1.684,14.668,14.668,0,0,0,1.822-1.656,5.757,5.757,0,0,0,.2.693,4.528,4.528,0,0,0,1.063,1.645,5.592,5.592,0,0,0,1.825,1.183,6.8,6.8,0,0,0,2.627.461,11.266,11.266,0,0,0,2.647-.341,7.864,7.864,0,0,0,2.607-1.163,6.65,6.65,0,0,0,1.985-2.146,6.37,6.37,0,0,0,.783-3.289Q764.865,1132.226,764.785,1131.283Zm-21.277-4.3a15.875,15.875,0,0,1,1.143-2.574,8.455,8.455,0,0,1,1.364-1.856,2.118,2.118,0,0,1,1.484-.719.8.8,0,0,1,.782.439,2.707,2.707,0,0,1,.22,1.2,6.175,6.175,0,0,1-.461,2.335,6.7,6.7,0,0,1-1.264,2.016,6.788,6.788,0,0,1-1.865,1.437,5.558,5.558,0,0,1-2.226.638A24.762,24.762,0,0,1,743.507,1126.986Zm-16.946,5.761a6,6,0,0,1-.562,1.544,4.221,4.221,0,0,1-.842,1.1,3.611,3.611,0,0,1-.983.662,2.346,2.346,0,0,1-.943.221,3.619,3.619,0,0,1-.622-.06,1.206,1.206,0,0,1-.642-.361,2.451,2.451,0,0,1-.521-.922,5.583,5.583,0,0,1-.221-1.785,16.35,16.35,0,0,1,.4-3.309,19.526,19.526,0,0,1,1.123-3.61,10.546,10.546,0,0,1,1.765-2.888,3.062,3.062,0,0,1,2.326-1.183,1.366,1.366,0,0,1,1.3.6,2.145,2.145,0,0,1,.341.963Zm32.187,2.286a3.234,3.234,0,0,1-.782,1.163,2.732,2.732,0,0,1-1.123.622,4.733,4.733,0,0,1-1.283.18,2.278,2.278,0,0,1-1.885-.7,3.322,3.322,0,0,1-.562-2.106.784.784,0,0,0,.461.421,1.937,1.937,0,0,0,.622.1,1.541,1.541,0,0,0,1.283-.622,2.153,2.153,0,0,0,.481-1.344,1.381,1.381,0,0,0-.261-.862,1.892,1.892,0,0,0-.661-.542q1-1.925,1.825-3.77a33.347,33.347,0,0,0,1.424-3.81q.159,2.326.3,3.81t.241,2.487q.1,1,.16,1.725t.06,1.484A4.59,4.59,0,0,1,758.748,1135.033Z" transform="translate(-547.877 -1109.845)" fill="#535353"/>
    </g>
    <g id="Group_48" data-name="Group 48" transform="translate(317.13 997)">
      <path id="Path_35" data-name="Path 35" d="M472.563,997h-.118a5.045,5.045,0,0,0-2,.456l-1.7.946c-.453.261-11.384,6.746-22.291,13.365-6.3,3.822-11.335,6.928-14.973,9.233-7.581,4.8-7.924,5.263-8.294,6.65a3.244,3.244,0,0,0,3.163,4.083c1.111,0,2.07,0,24.87-12.276,8.753-4.712,17.814-9.68,21.308-11.608l11.031,6.309a5.073,5.073,0,0,0,7.706-3.435h3.054v6.67a5.093,5.093,0,0,0,2.738,4.485l17.622,10.079a5.074,5.074,0,0,0,6.9-1.834,5,5,0,0,0,.518-3.835h0a5.013,5.013,0,0,0-2.368-3.078l-15.274-8.737v-8.8a5.064,5.064,0,0,0-5.067-5.05H486.268a5.071,5.071,0,0,0-3.532,1.429l-7.644-4.372-.441-.227a5.068,5.068,0,0,0-2-.454H472.6" transform="translate(-419.87 -997)" fill="#6c90d8"/>
      <path id="Path_36" data-name="Path 36" d="M422.537,1231.248l89.074,2.141.149,0a6.126,6.126,0,0,0,6.119-6.119v-9.243a6.223,6.223,0,0,0-12.447,0v3.063l-83.9,2.017-.653-5.3a2.856,2.856,0,0,0-5.67,0l-.673,5.466-.077.624-.376,3.052c-.014.117-.023.241-.027.362a3.728,3.728,0,0,0,3.638,3.817l4.093.1Z" transform="translate(-414.059 -1135.416)" fill="#6c90d8"/>
    </g>
  </g>
</svg>
